<svg xmlns="http://www.w3.org/2000/svg" viewBox="0 0 240 56" width="240" height="56">
  <text x="0" y="44" font-family="DM Serif Display, Georgia, serif" font-size="44" font-weight="400" fill="#14110E" letter-spacing="-0.4">Primr</text>
  <g transform="translate(148 16) scale(1.33)" fill="none" stroke="#0E7C6B" stroke-width="1.8" stroke-linecap="round" stroke-linejoin="round">
    <path d="M12 7v14"></path>
    <path d="M3 18a1 1 0 0 1-1-1V4a1 1 0 0 1 1-1h5a4 4 0 0 1 4 4 4 4 0 0 1 4-4h5a1 1 0 0 1 1 1v13a1 1 0 0 1-1 1h-6a3 3 0 0 0-3 3 3 3 0 0 0-3-3z"></path>
  </g>
</svg>